<?xml version="1.0" encoding="utf-8"?>
<!-- Generator: Adobe Illustrator 13.0.1, SVG Export Plug-In . SVG Version: 6.00 Build 14948)  -->
<!DOCTYPE svg PUBLIC "-//W3C//DTD SVG 1.1//EN" "http://www.w3.org/Graphics/SVG/1.1/DTD/svg11.dtd">
<svg version="1.1" id="Capa_1" xmlns="http://www.w3.org/2000/svg" xmlns:xlink="http://www.w3.org/1999/xlink" x="0px" y="0px"
	 width="293.3px" height="432px" viewBox="253.4 24 293.3 432" style="enable-background:new 253.4 24 293.3 432;"
	 xml:space="preserve">
<style type="text/css">
<![CDATA[
	.st0{fill:#7E8AA2;}
	.st1{fill:#263248;}
	.st2{fill:#FF9800;}
]]>
</style>
<path class="st1" d="M468.2,260.3c0.7-1.1,0.3-2.6-0.8-3.3c-13.1-7.9-27-3.8-39.1,11.5c-0.8,1-0.6,2.5,0.4,3.3
	c0.4,0.3,1,0.5,1.5,0.5c0.7,0,1.4-0.3,1.9-0.9c1-1.3,2.2-2.6,3.4-3.9c1.4,0.4,3,1.2,4.9,2.2c4.3,2.2,10,5,17,5
	c1.7,0,3.4-0.2,5.2-0.5c1.3-0.3,2.1-1.5,1.9-2.8c-0.3-1.3-1.5-2.1-2.8-1.9c-7.9,1.6-14.1-1.5-19.2-4.1c-1.1-0.5-2.1-1.1-3.1-1.5
	c2.5-2.1,5.3-3.8,8.2-4.9c-0.1,0.4-0.1,0.8-0.1,1.2c0,3.9,3.2,7.1,7.1,7.1c3.9,0,7.1-3.2,7.1-7.1c0-0.3-0.1-0.6-0.1-0.9
	c1.1,0.5,2.3,1,3.5,1.7C466.1,261.8,467.5,261.4,468.2,260.3z M454.5,262.7c-1.3,0-2.4-1.1-2.4-2.4c0-1.3,1.1-2.4,2.4-2.4
	c1.3,0,2.4,1.1,2.4,2.4C456.8,261.6,455.8,262.7,454.5,262.7z"/>
<path class="st0" d="M536.7,91c-5.5,0-9.9,4.5-9.9,9.9c0,1.5,0.4,2.9,1,4.2l-52.3,42.2V80c4.3-1.1,7.6-5,7.6-9.6
	c0-5.5-4.5-9.9-9.9-9.9c-5.5,0-9.9,4.5-9.9,9.9c0,2.5,0.9,4.7,2.4,6.4l-36.7,51.5l-22.4-75.9c5-2.4,8.5-7.5,8.5-13.4
	c0-8.2-6.7-14.9-14.9-14.9c-8.2,0-14.9,6.7-14.9,14.9c0,5.9,3.5,11,8.5,13.4l-22.4,75.9l-36.7-51.5c1.5-1.7,2.4-4,2.4-6.4
	c0-5.5-4.5-9.9-9.9-9.9s-9.9,4.5-9.9,9.9c0,4.7,3.2,8.5,7.6,9.6v67.4l-52.3-42.2c0.6-1.3,1-2.7,1-4.2c0-5.5-4.5-9.9-9.9-9.9
	c-5.5,0-10,4.5-10,9.9c0,5.5,4.5,10,10,10c1.1,0,2.2-0.2,3.2-0.6l39.6,61.7c-3.5,1.2-6.1,4.5-6.1,8.5c0,4.9,4,9,9,9h2.9
	c8,0,14.5,6.5,14.5,14.5s-6.5,14.5-14.5,14.5c-0.1,0-0.2,0-0.3,0.1c-0.1,0-0.2,0-0.3,0c-0.1,0-0.1,0.1-0.2,0.1
	c-0.2,0.1-0.3,0.1-0.4,0.2c-0.1,0.1-0.3,0.2-0.4,0.2c-0.1,0.1-0.2,0.2-0.3,0.3c-0.1,0.1-0.2,0.2-0.3,0.4c-0.1,0.1-0.1,0.3-0.2,0.4
	c0,0.2-0.1,0.3-0.1,0.5c0,0.1,0,0.1,0,0.2c0,0.1,0,0.2,0,0.2c0,0.1,0,0.2,0,0.3l2.3,10.1c0.2,1.1,1.2,1.9,2.3,1.9h9.4
	c-3.5,6-4,14-4,28.5c-2,0.3-3.8,1-5.3,2.1c-3.8,2.5-6.2,6.8-6.2,11.9c0,5.8,2.1,9.5,7.4,13v0.4c-4.5,1-7.4,4.8-7.4,10.4
	c0,4.5,2.2,8.3,5.6,10.4c-3.4,2.6-5.6,6.7-5.6,11.4c0,5.8,2.1,9.5,7.4,13v0.4c-4.5,1-7.4,4.8-7.4,10.4c0,4.5,2.2,8.3,5.6,10.4
	c-3.4,2.6-5.6,6.7-5.6,11.4c0,5.8,2.1,9.5,7.4,13v0.4c-4.5,0.9-7.4,4.8-7.4,10.4c0,7.2,5.4,12.4,12.8,12.4c4,0,7.5-1.6,10-4.3
	c2.4-2.5,3.9-6,3.9-10c0-0.6,0-1.1-0.1-1.6c11.8-2.2,23-7.3,33.3-14.9c16.7,11.6,31.1,29,43.9,44.4c17.4,21,32.5,39.2,49.1,39.2
	c6.8,0,12.5-3.5,16.6-10c10.8-17.2,8.7-53.7-4.7-81.3c-2.1-6.5-2.4-10.6-0.8-16.2c6-3.9,9.1-9.5,9.4-14.9c0.2-3.3-0.8-6.2-2.8-8.3
	c-4.1-4.3-11.9-4.6-20.3-0.5c-2,1-3.8,1.9-5.5,2.7c-7.4,3.8-12.4,6.3-18.4,5.4c-4.7-0.7-11.6-4.1-15-9.1c-0.6-0.9-1.7-1.2-2.7-0.9
	c-1,0.3-1.7,1.2-1.7,2.3c0.1,12.7,13.1,25.6,28,27.8c3.2,0.5,6.3,0.7,9.2,0.7c5.7,0,10.5-1,14.4-2.5c-0.7,4.5-0.2,8.5,1.2,13.2
	c-3.5,2.7-4.6,6.9-5.7,10.6c-1,3.8-1.9,7-4.8,8.2c-6.8,2.8-11.1-0.7-21.1-9.8c-8.9-8.1-21.1-19.1-41.8-28.8
	c15.5-22.1,26.5-51.1,30.8-83.7c2.3-2.5,20.5-20.9,41.5-10.2c1.2,0.6,2.6,0.1,3.2-1c0.6-1.2,0.1-2.6-1-3.2
	c-18.6-9.5-35.1,0.8-42.8,7.2c0.7-6.7,1-13.6,1.1-20.6h48.7l0.3,1c2,6.8,3.7,12.7,0.8,21.6c-0.7,2.3-1.8,4.2-2.7,5.9
	c-1.7,3.2-3.3,6.2-2,10c0.4,1.1,1.2,2.6,2.4,4.7c3.8,6.7,10.9,19.2,10.9,34.1c0,1.7-1.3,3.5-3.4,3.5h-21.4c-4.9,0-7.8-2-7.8-5.4
	c0-1.7,0.8-3.5,2.1-4.9c1.1-1.1,2.9-2.4,5.8-2.4c1.3,0,2.4-1.1,2.4-2.4c0-1.3-1.1-2.4-2.4-2.4c-3.6,0-6.8,1.3-9.2,3.8
	c-2.2,2.3-3.5,5.3-3.5,8.2c0,4.7,3.3,10.1,12.6,10.1H482c4.6,0,8.1-3.6,8.1-8.2c0-16.2-7.5-29.3-11.5-36.4c-1-1.7-1.8-3.2-2.1-3.9
	c-0.6-1.7,0.1-3.2,1.7-6.1c1-1.9,2.1-4,3-6.6c3.3-10.1,1.3-17.2-0.6-24.1h5.3c1.1,0,2.1-0.8,2.3-1.9l2.3-10.1c0-0.1,0-0.2,0-0.3
	c0-0.1,0-0.2,0-0.2c0-0.1,0-0.1,0-0.2c0-0.2,0-0.3-0.1-0.5c0-0.1-0.1-0.3-0.2-0.4c-0.1-0.1-0.1-0.2-0.2-0.4
	c-0.1-0.1-0.2-0.2-0.3-0.3c-0.1-0.1-0.2-0.2-0.3-0.2c-0.1-0.1-0.3-0.2-0.5-0.2c-0.1,0-0.1-0.1-0.2-0.1c-0.1,0-0.2,0-0.2,0
	c-0.1,0-0.2-0.1-0.3-0.1c-8,0-14.5-6.5-14.5-14.5c0-8,6.5-14.5,14.5-14.5h2.9c4.9,0,9-4,9-9c0-3.9-2.6-7.3-6.1-8.5l39.6-61.7
	c1,0.3,2.1,0.6,3.2,0.6c5.5,0,9.9-4.5,9.9-10C546.7,95.5,542.2,91,536.7,91z M263.3,106.2c-2.9,0-5.2-2.3-5.2-5.2
	c0-2.9,2.3-5.2,5.2-5.2c2.9,0,5.2,2.3,5.2,5.2c0,0.3-0.1,0.6-0.2,1c-0.4,2.2-2.2,3.9-4.5,4.1C263.6,106.1,263.5,106.2,263.3,106.2z
	 M467.8,70.4c0-2.9,2.3-5.2,5.2-5.2c2.9,0,5.2,2.3,5.2,5.2c0,2-1.2,3.7-2.8,4.5c-0.7,0.4-1.5,0.6-2.4,0.6c-2,0-3.7-1.2-4.6-2.9
	C468.1,72,467.8,71.2,467.8,70.4z M469.4,79.6c0.4,0.2,0.8,0.3,1.3,0.4v67.9c-11.1-7.4-24.1-12.9-38.5-16.1L469.4,79.6z M374.8,133
	l0.8-2.6l22-74.9v54.2c-7.5,1.2-13.2,7.6-13.2,15.4c0,1.4,0.3,2.8,0.6,4.1c0.5,1.6,1.1,3.2,2,4.6c2.4,3.5,6.2,6,10.6,6.7v15.5
	l-20.9-20.9L374.8,133z M400,28.8c5.6,0,10.2,4.6,10.2,10.2c0,3.8-2.1,7-5.1,8.8c-0.7,0.4-1.4,0.7-2.2,0.9c-0.2,0-0.3,0.1-0.5,0.2
	c-0.6,0.1-1.2,0.2-1.9,0.3c-0.2,0-0.3,0-0.5,0s-0.3,0-0.5,0c-0.6,0-1.3-0.1-1.9-0.3c-0.2,0-0.3-0.1-0.5-0.2
	c-0.8-0.2-1.5-0.5-2.2-0.9c-3.1-1.8-5.1-5-5.1-8.8C389.8,33.3,394.4,28.8,400,28.8z M400,135.8c-0.8,0-1.6-0.1-2.4-0.3
	c-1.7-0.4-3.2-1.2-4.5-2.3c-1.5-1.2-2.6-2.8-3.3-4.6c-0.4-1.2-0.7-2.4-0.7-3.7c0-5.2,3.6-9.5,8.5-10.6c0.8-0.2,1.6-0.3,2.4-0.3
	c0.8,0,1.6,0.1,2.4,0.3c4.8,1.1,8.5,5.4,8.5,10.6c0,1.3-0.3,2.5-0.7,3.7c-0.7,1.8-1.8,3.4-3.3,4.6c-1.3,1.1-2.8,1.9-4.5,2.3
	C401.6,135.7,400.8,135.8,400,135.8z M402.4,140.3c4.4-0.7,8.2-3.1,10.6-6.7c0.9-1.4,1.6-2.9,2-4.6c0.4-1.3,0.6-2.7,0.6-4.1
	c0-7.8-5.8-14.2-13.2-15.4V55.4l22,74.9l0.8,2.6l-2,2l-20.9,20.9L402.4,140.3L402.4,140.3z M367.9,131.8
	c-14.3,3.2-27.4,8.7-38.5,16.1V80c0.4-0.1,0.9-0.2,1.3-0.4L367.9,131.8z M321.8,70.4c0-2.9,2.3-5.2,5.2-5.2c2.9,0,5.2,2.3,5.2,5.2
	c0,0.8-0.3,1.6-0.6,2.3c-0.9,1.7-2.6,2.9-4.6,2.9c-0.9,0-1.7-0.3-2.4-0.6C323,74,321.8,72.4,321.8,70.4z M309,184.7
	c-2.3,0-4.2-1.9-4.2-4.2s1.9-4.2,4.2-4.2h1.2h179.8c0,0,0,0,0,0c0,0,0,0,0,0h1.1c2.3,0,4.2,1.9,4.2,4.2c0,2.3-1.9,4.2-4.2,4.2h-2.9
	H309z M333.1,233.3c-0.6,7.5-4.1,13.9-8.6,16c0.5-8.3,1.8-12.6,4.8-16H333.1z M347.5,233.3c-0.6,15-6.4,27.8-14.7,34.2
	c-0.6-1-1.3-1.9-2.2-2.7c-0.4-0.3-0.8-0.6-1.2-0.9c-1.5-1.1-3.3-1.8-5.3-2.1c0-2.7,0-5.1,0.1-7.3c7.4-1.9,12.8-10.4,13.5-21.1H347.5
	z M361.9,233.3c-0.7,27.1-12.6,49.7-28.9,57.3c-0.6-1.1-1.3-2.1-2.3-3.1c-0.9-0.9-2-1.8-3.3-2.7v-0.5c1.3-0.3,2.4-0.8,3.3-1.5
	c2.5-1.8,3.9-4.9,3.9-8.9c0-0.6-0.1-1.2-0.2-1.8c10.1-7,17.2-21.6,17.8-38.8H361.9L361.9,233.3z M376.2,233.3
	c-0.7,39.2-19.1,71.7-43.5,79.6c-0.6-0.9-1.3-1.8-2.1-2.5c-0.5-0.5-1.1-0.9-1.7-1.3c0.6-0.5,1.2-0.9,1.7-1.5c2.4-2.5,3.9-6,3.9-9.9
	c0-0.9-0.1-1.8-0.2-2.6c18.2-8.1,31.5-32.6,32.2-61.8H376.2z M390.6,233.3c-0.8,51.4-25.8,93.8-58.4,101.7c-0.5-0.7-1-1.3-1.6-1.9
	c-0.9-0.9-2-1.8-3.3-2.7v-0.5c1.3-0.3,2.4-0.8,3.3-1.5c2.5-1.8,3.9-4.9,3.9-8.9c0-0.7-0.1-1.5-0.2-2.2c26.2-8.7,45.8-42.9,46.6-84
	H390.6z M405,233.3c-0.8,63.7-32.6,116-73.4,123.6c-0.3-0.3-0.6-0.6-0.9-0.9c-0.5-0.5-1.1-0.9-1.7-1.3c0.6-0.5,1.2-0.9,1.7-1.5
	c2.4-2.5,3.9-6,3.9-9.9c0-1.4-0.1-2.7-0.4-3.9c34.2-9,60.4-53,61.2-106.1H405z M312.6,299.5c0-2.6,0.8-5.8,4.7-5.9c0,0,0.1,0,0.1,0
	c0.7,0.1,1.3-0.2,1.8-0.6c0.5-0.4,0.7-1.1,0.7-1.7v-3.9c0-0.8-0.4-1.6-1.1-2c-5.2-3.2-6.2-5.8-6.2-9.6c0-5.3,4-9.5,9.2-9.5
	c3.2,0,5.7,1.4,7,3.7c0.7,1.1,1,2.4,1,3.9c0,0.2,0,0.5,0,0.7c-0.2,2.5-1.2,5.1-4.8,5.1c-1.3,0-2.4,1.1-2.4,2.4v4
	c0,0.8,0.4,1.6,1.1,2c2.3,1.4,3.8,2.7,4.7,4.1c0.9,1.4,1.3,2.9,1.4,4.5c0,0.3,0,0.6,0,0.9c0,5.3-4,9.4-9.2,9.4
	C315.9,307.1,312.6,304,312.6,299.5z M312.6,345.1c0-2.6,0.8-5.8,4.7-5.9c0,0,0.1,0,0.1,0c0.5,0,1-0.1,1.4-0.4
	c0.1-0.1,0.3-0.1,0.4-0.2c0.5-0.4,0.7-1.1,0.7-1.7v-0.1V333c0-0.8-0.4-1.6-1.1-2c-5.2-3.2-6.2-5.8-6.2-9.6c0-5.3,4-9.5,9.2-9.5
	c2.5,0,4.6,0.8,6,2.3c1.1,1.1,1.8,2.6,2,4.4c0,0.3,0.1,0.6,0.1,0.9c0,2.7-0.8,5.9-4.9,5.9c-1.3,0-2.4,1.1-2.4,2.4v4
	c0,0.8,0.4,1.6,1.1,2c1.3,0.8,2.3,1.5,3.1,2.3c1.6,1.4,2.4,2.8,2.7,4.4c0.2,0.9,0.3,1.8,0.3,2.9c0,5.3-4,9.4-9.2,9.4
	C315.9,352.7,312.6,349.7,312.6,345.1z M320.7,398.3c-4.8,0-8.1-3.1-8.1-7.6c0-2.6,0.8-5.8,4.7-5.9c0,0,0.1,0,0.1,0
	c0.7,0,1.3-0.2,1.8-0.6c0.5-0.4,0.7-1.1,0.7-1.7v-3.9c0-0.8-0.4-1.6-1.1-2c-5.2-3.2-6.2-5.8-6.2-9.6c0-5.3,4-9.5,9.2-9.5
	c0.9,0,1.7,0.1,2.4,0.3c2.4,0.6,4.2,2.1,5.1,4.3c0.4,0.9,0.5,1.9,0.5,3c0,2.7-0.8,5.9-4.9,5.9c-1.3,0-2.4,1.1-2.4,2.4v4
	c0,0.8,0.4,1.6,1.1,2c2.3,1.4,3.7,2.7,4.7,4.1c1,1.4,1.3,2.9,1.4,4.6c0,0.3,0,0.6,0,0.9C329.9,394.2,325.8,398.3,320.7,398.3z
	 M452.1,348.9c-2.7,0-5.5-0.2-8.5-0.6c-9.4-1.4-18.2-8-22-15.6c3.6,2.6,7.9,4.4,12,5c7.5,1.1,13.5-1.9,21.3-5.9
	c1.7-0.8,3.5-1.8,5.4-2.7c6.3-3.1,12.1-3.2,14.7-0.5c1.1,1.1,1.6,2.8,1.5,4.8C476.2,340.8,468.4,348.9,452.1,348.9z M432.9,377
	c9.7,8.9,16.2,14.7,26.1,10.6c5-2.1,6.4-7,7.6-11.4c0.7-2.7,1.4-5.1,2.8-6.8c0.1-0.1,0.1-0.2,0.2-0.3c2.3,5.1,4.2,10.5,5.8,16
	c6.2,22.3,5.9,45.9-1.9,58.4c-3.2,5.2-7.5,7.8-12.6,7.8c-14.4,0-28.7-17.4-45.4-37.5c-12.7-15.3-27-32.5-43.7-44.4
	c7.1-5.8,13.7-12.8,19.7-20.7C412.1,358.1,424.1,369,432.9,377z M333.4,382.6c-0.6-1.4-1.5-2.7-2.7-4c-0.9-0.9-2-1.8-3.3-2.7v-0.5
	c1.3-0.3,2.4-0.8,3.3-1.5c2.5-1.8,3.9-4.9,3.9-8.8c0-1.4-0.2-2.6-0.6-3.8c42.3-9.1,75-62.9,75.8-128h12.5
	C421.5,310.3,382.9,373.6,333.4,382.6z M485.2,223.2l-1.2,5.3h-59.3h-17.2h-14.4h-14.4h-14.4H350h-14.4H316l-1.2-5.3L485.2,223.2z
	 M468.9,204c0,5.8,2.5,10.9,6.6,14.5h-151c4-3.5,6.6-8.7,6.6-14.5c0-5.8-2.6-10.9-6.7-14.5h151.3C471.6,193,468.9,198.2,468.9,204z
	 M488.6,171.5H311.4L273.2,112l52.3,42.2c0,0,0.1,0,0.2,0.1c0.1,0.1,0.2,0.1,0.3,0.2c0.1,0,0.2,0.1,0.3,0.1c0.1,0,0.2,0.1,0.3,0.1
	c0.1,0,0.2,0,0.3,0c0.1,0,0.1,0,0.2,0c0,0,0.1,0,0.1,0c0.1,0,0.2,0,0.3,0c0.1,0,0.2,0,0.3-0.1c0.1,0,0.2-0.1,0.3-0.1
	c0.1,0,0.2-0.1,0.2-0.1c0,0,0.1,0,0.1-0.1c11.8-8.7,26.5-14.9,42.7-18.3l27.3,27.3c0.1,0.1,0.3,0.2,0.5,0.3c0.1,0.1,0.2,0.1,0.3,0.2
	c0.3,0.1,0.6,0.2,0.9,0.2l0,0h0c0.1,0,0.2,0,0.2,0c0.2,0,0.5,0,0.7-0.1c0.3-0.1,0.5-0.3,0.8-0.5l0,0l27.2-27.2
	c16.2,3.4,30.9,9.6,42.7,18.3c0.1,0,0.1,0.1,0.2,0.1c0.1,0,0.1,0.1,0.2,0.1c0.1,0,0.1,0.1,0.2,0.1c0.1,0.1,0.3,0.1,0.4,0.1
	c0.1,0,0.2,0,0.3,0c0,0,0.1,0,0.1,0c0.1,0,0.2,0,0.3-0.1c0.2,0,0.3,0,0.5-0.1c0.1,0,0.1,0,0.2-0.1c0.1,0,0.1-0.1,0.2-0.2
	c0.1-0.1,0.2-0.1,0.3-0.1l52.3-42.2L488.6,171.5z M536.7,106.2c-0.2,0-0.3-0.1-0.5-0.1c-2.3-0.2-4.1-1.9-4.5-4.1
	c-0.1-0.3-0.2-0.6-0.2-1c0-2.9,2.3-5.2,5.2-5.2s5.2,2.3,5.2,5.2C541.9,103.8,539.6,106.2,536.7,106.2z"/>
<path class="st2" d="M342,214.5c0.4,0.7,1.2,1.1,2,1.1c0.8,0,1.6-0.4,2-1.1l5.8-9.3c0.5-0.8,0.5-1.8,0-2.5l-5.8-9.3
	c-0.4-0.7-1.2-1.1-2-1.1c-0.8,0-1.6,0.4-2,1.1l-5.8,9.3c-0.5,0.8-0.5,1.8,0,2.5L342,214.5z M344,199.2l3,4.8l-3,4.8l-3-4.8
	L344,199.2z"/>
<path class="st2" d="M364.6,214.5c0.4,0.7,1.2,1.1,2,1.1c0.8,0,1.6-0.4,2-1.1l5.8-9.3c0.5-0.8,0.5-1.8,0-2.5l-5.8-9.3
	c-0.9-1.4-3.2-1.4-4,0l-5.8,9.3c-0.5,0.8-0.5,1.8,0,2.5L364.6,214.5z M366.6,199.2l3,4.8l-3,4.8l-3-4.8L366.6,199.2z"/>
<path class="st2" d="M453.9,214.5c0.4,0.7,1.2,1.1,2,1.1c0.8,0,1.6-0.4,2-1.1l5.8-9.3c0.5-0.8,0.5-1.8,0-2.5l-5.8-9.3
	c-0.9-1.4-3.2-1.4-4,0l-5.8,9.3c-0.5,0.8-0.5,1.8,0,2.5L453.9,214.5z M456,199.2l3,4.8l-3,4.8l-3-4.8L456,199.2z"/>
<path class="st2" d="M431.3,214.5c0.4,0.7,1.2,1.1,2,1.1c0.8,0,1.6-0.4,2-1.1l5.8-9.3c0.5-0.8,0.5-1.8,0-2.5l-5.8-9.3
	c-0.9-1.4-3.2-1.4-4,0l-5.8,9.3c-0.5,0.8-0.5,1.8,0,2.5L431.3,214.5z M433.3,199.2l3,4.8l-3,4.8l-3-4.8L433.3,199.2z"/>
<path class="st2" d="M398.6,216.3c0.4,0.3,0.9,0.5,1.4,0.5s1-0.2,1.4-0.5l14.1-10.5c0.6-0.4,1-1.2,1-1.9c0-0.8-0.4-1.5-1-1.9
	l-14.1-10.4c-0.8-0.6-2-0.6-2.8,0L384.5,202c-0.6,0.4-1,1.2-1,1.9c0,0.7,0.4,1.5,1,1.9L398.6,216.3z M400,196.5l10.1,7.5l-10.1,7.5
	l-10.1-7.5L400,196.5z"/>
</svg>
